<svg width="868" height="842" viewBox="0 0 868 842" fill="none" xmlns="http://www.w3.org/2000/svg">
<path fill-rule="evenodd" clip-rule="evenodd" d="M767.671 687.05C829.161 585.405 868.395 439.519 867.869 331.295C867.213 222.931 826.921 152.358 787.161 106.144C747.395 59.9307 708.421 38.0765 651.806 21.7484C595.322 5.42025 521.197 -5.37663 432.056 2.79004C342.785 10.9515 238.379 38.2067 158.327 113.254C78.4053 188.306 22.973 311.149 5.59278 416.743C-11.7874 522.207 8.75423 610.29 103.947 688.634C199.14 766.972 368.858 835.571 495.52 840.967C622.312 846.498 706.187 788.832 767.671 687.05Z" fill="#F5DBD1"/>
<path d="M462.041 143.472C518.91 83.3939 617.327 103.921 672.755 155.556C712.609 194.514 732.035 250.519 737.619 305.061C772.942 286.514 807.947 260.42 830.634 227.53C835.74 219.069 840.521 210.188 844.396 200.984C854.122 226.08 861.576 254.647 865.283 287.181C829.467 327.03 783.484 358.099 733.384 376.909C706.416 521.941 599.026 594.733 459.406 615.228C465.552 652.238 468.848 690.363 460.926 727.373C453.376 764.659 437.106 799.991 414.251 830.357C391.524 825.657 368.286 819.562 345.046 812.306C371.865 785.325 390.785 750.596 398.244 713.155C404.259 682.363 400.4 650.816 394.817 620.243C333.452 620.707 271.16 609.441 216.447 580.863C161.765 552.274 109.093 499.868 107.614 434.759C107.447 401.65 125.041 367.358 155.161 352.17C175.39 342.045 198.603 340.296 220.822 342.54C278.395 348.816 326.833 386.17 365.64 426.858C400.395 462.561 427.114 505.681 443.541 552.712C542.666 539.066 633.786 495.842 663.312 393.003C598.385 401.363 508.322 367.18 463.692 320.097C413.635 269.821 412.067 194.389 462.041 143.472ZM375.588 555.55C351.457 494.232 260.494 389.681 187.297 408.206C176.953 411.67 172.77 423.478 171.994 433.478C171.343 446.988 177.645 459.488 184.77 470.566C201.041 495.347 225.103 513.675 251.505 526.576C290.062 545.274 332.931 554.071 375.588 555.55ZM615.806 192.019C590.973 176.634 559.682 165.165 530.593 173.967C506.073 182.717 488.14 208.493 489.505 234.644C491.546 258.904 510.057 277.769 528.625 291.659C547.359 304.727 564.28 311.998 584.806 319.217C616.114 329.847 641.458 332.717 674.203 326.925C673.442 279.227 656.504 220.602 615.806 192.019Z" fill="#D95F3B"/>
</svg>
