<svg width="1080" height="1080" viewBox="0 0 1080 1080" fill="none" xmlns="http://www.w3.org/2000/svg">
<path d="M970.799 368.296C972.39 382.258 973.292 396.95 973.386 412.411C973.912 520.635 934.677 666.521 873.188 768.167C811.703 869.948 727.828 927.614 601.036 922.083C575.387 920.99 547.972 917.305 519.768 911.473C542.623 881.107 558.892 845.775 566.442 808.489C574.364 771.479 571.068 733.354 564.922 696.344C704.542 675.849 811.933 603.057 838.901 458.026C889.002 439.215 934.983 408.145 970.799 368.296ZM537.573 83.9062C626.714 75.7396 700.839 86.5361 757.323 102.864C813.938 119.192 852.911 141.047 892.677 187.261C913.545 211.516 934.559 242.483 949.913 282.102C946.038 291.305 941.257 300.186 936.151 308.645C913.464 341.536 878.459 367.63 843.136 386.177C837.552 331.635 818.125 275.63 778.271 236.672C722.843 185.037 624.427 164.511 567.558 224.589C517.584 275.506 519.151 350.938 569.208 401.214C613.838 448.297 703.901 482.479 768.828 474.12C739.302 576.958 648.182 620.182 549.058 633.828C532.631 586.797 505.911 543.677 471.156 507.974C432.349 467.286 383.912 429.932 326.339 423.656C304.12 421.411 280.906 423.161 260.677 433.286C230.557 448.474 212.963 482.766 213.13 515.875C214.609 580.984 267.282 633.391 321.964 661.979C376.677 690.557 438.969 701.823 500.333 701.359C505.916 731.932 509.776 763.479 503.761 794.27C496.302 831.712 477.381 866.441 450.562 893.422C360.216 865.213 269.847 819.442 209.464 769.75C114.271 691.406 93.7292 603.323 111.109 497.859C128.49 392.266 183.922 269.422 263.844 194.37C343.896 119.323 448.302 92.0677 537.573 83.9062ZM292.813 489.323C366.01 470.797 456.974 575.349 481.105 636.667C438.448 635.188 395.578 626.39 357.021 607.692C330.62 594.791 306.557 576.464 290.286 551.683C283.161 540.604 276.86 528.104 277.511 514.594C278.287 504.594 282.469 492.787 292.813 489.323ZM636.109 255.083C665.198 246.281 696.49 257.75 721.323 273.136C762.021 301.719 778.958 360.344 779.719 408.042C746.974 413.834 721.63 410.963 690.323 400.333C669.797 393.114 652.875 385.844 634.141 372.776C615.573 358.886 597.062 340.021 595.021 315.761C593.656 289.61 611.589 263.833 636.109 255.083Z" fill="#E8533A"/>
</svg>
